<svg xmlns="http://www.w3.org/2000/svg" viewBox="0 0 512 512"><title>Artboard 115</title><g id="Male_Student" data-name="Male Student"><rect x="64" y="256" width="384" height="213.33333" rx="42.66667" ry="42.66667" style="fill:#163969"/><rect x="106.66667" y="256" width="298.66667" height="64" rx="31.99997" ry="31.99997" style="fill:#002755"/><rect x="106.66667" y="234.66667" width="298.66667" height="42.66667" rx="21.33331" ry="21.33331" style="fill:#33527d"/><path d="M256,298.66667,84.214,345.5174a85.33332,85.33332,0,0,0-62.88065,82.32651V448A42.66667,42.66667,0,0,0,64,490.66667H448A42.66667,42.66667,0,0,0,490.66667,448V427.84391A85.33332,85.33332,0,0,0,427.786,345.5174Z" style="fill:#b19cdc"/><path d="M256,298.66667,84.214,345.5174a85.33332,85.33332,0,0,0-62.88065,82.32651V448A42.66667,42.66667,0,0,0,64,490.66667H448A42.66667,42.66667,0,0,0,490.66667,448V427.84391A85.33332,85.33332,0,0,0,427.786,345.5174Z" style="fill:#0784ff"/><path d="M256,426.66667a84.48671,84.48671,0,0,0,82.69531-105.44662L256,298.66667l-82.69531,22.55338A84.48671,84.48671,0,0,0,256,426.66667Z" style="fill:#ffbe00"/><path d="M181.3333,170.66667H192a0,0,0,0,1,0,0v64a0,0,0,0,1,0,0H181.3333a32,32,0,0,1-32-32v-.00006a32,32,0,0,1,32-32Z" style="fill:#ffbe00"/><path d="M256,298.66667l-63.17188,17.22916A20.3369,20.3369,0,0,0,192,320a21.33355,21.33355,0,0,0,21.33333,21.33333h21.33334a63.99984,63.99984,0,0,1,64,64,21.16111,21.16111,0,0,0,1.8164,8.51172,83.503,83.503,0,0,0,38.21224-92.625Z" style="fill:#ffa300"/><path d="M298.66667,310.30339,256,298.66667l-42.66667,11.63672v31.02994h21.33334A63.81278,63.81278,0,0,1,294.7474,384h3.91927Z" style="fill:#ffa300"/><path d="M352,170.66667h10.6667a0,0,0,0,1,0,0v64a0,0,0,0,1,0,0H352a32,32,0,0,1-32-32v-.00006a32,32,0,0,1,32-32Z" transform="translate(682.66667 405.33333) rotate(-180)" style="fill:#ffa300"/><rect x="170.66667" y="85.33333" width="170.66667" height="234.66658" rx="85.33325" ry="85.33325" style="fill:#ffbe00"/><path d="M170.66667,170.66667v64a84.82563,84.82563,0,0,0,27.58854,62.48047,84.44414,84.44414,0,0,0,100.41146-83.81381v-64a84.82449,84.82449,0,0,0-27.58724-62.48047,84.44537,84.44537,0,0,0-100.41276,83.81381Z" style="fill:#ffea21"/><circle cx="224" cy="202.66667" r="10.66667" style="fill:#005eee"/><circle cx="288" cy="202.66667" r="10.66667" style="fill:#005eee"/><rect x="234.66667" y="256" width="42.66667" height="21.33333" rx="10.66666" ry="10.66666" style="fill:#ffff9d"/><rect x="234.66667" y="213.33333" width="42.66667" height="21.33333" rx="10.66666" ry="10.66666" style="fill:#ffbe00"/><path d="M427.78646,345.51693,338.6237,321.20052c.54557,2.24089,1.29557,4.39974,1.66015,6.70573v.00391c.0586.37239.11459.74218.16927,1.11588v.00521c.00391.02214.00652.04427.01042.06641.00261.02213.00651.04557.00912.0677l.0013.00521c.0026.02214.00521.04167.00911.06381v.00651l.00912.06119.0013.01042c.04557.32552.08984.64844.13151.97656l.0013.00782c.00261.02213.00521.043.00912.0651v.0013l.00781.06771.0013.00391c.00521.04687.01172.08984.01693.13671v.00391c.0039.02214.00651.043.00911.0651v.00521c.00261.02214.00651.04558.00912.069.026.21224.05208.42318.07682.63542l.00781.069v.00521l.00782.0638.0013.00912.00651.05859.0013.01562.00651.05469.0013.01433c.00261.01692.00391.03776.00651.05468l.00131.01693.00651.05469.0013.013.00651.05469.0013.01822.00651.056.0013.01042c.00261.01953.00391.03906.00651.05859l.0013.013c.00521.04427.00912.08593.01433.1302l.0013.00912c.01953.1875.03906.3737.05729.5625l.0013.01172c.00261.01953.00391.03906.00651.05859l.00131.01042c.0013.01953.0039.03906.0052.05859l.00131.013c.0026.02084.0039.03906.00521.0586l.0026.013c.0013.01692.0026.03776.00521.05468l.0013.01693c.0013.02083.0026.03516.00521.05469l.0013.01562c.0013.01953.00391.03386.00521.05469l.0013.01432.00521.0573.0013.013c.0026.01953.00391.03646.00521.056l.0013.01432c.00261.02344.00391.04167.00651.0638v.00521c.01563.16276.03125.332.04557.49609v.00782c.00261.02343.00391.03906.00521.06119l.0013.01172c.00131.01953.00391.03907.00521.0586l.00131.01432.0039.05338.00261.02084.0039.04818.0013.02343.00391.04948.0026.01823.00391.04948.0013.02474.00391.043.0026.02734.00261.04037.0026.03125.00391.04427.0013.02213.00391.05209.0013.01823.00521.05729.0013.01041.0039.06381.00131.00781c.00651.09505.01432.1875.02083.28385v.00521c.0026.02214.00391.043.00521.06641v.00521c.0026.01953.00391.043.00521.0625l.0013.01822.00391.05339.0013.01823.0039.04948.00131.02213c.0013.01693.0026.03386.0026.05078l.0013.01954.00391.04948.0013.02213.00391.04818.0013.02213c.0013.01693.0026.02995.0026.04688l.00261.026c0,.013.0013.02995.0026.04427l.0013.02474.00391.04688a.14966.14966,0,0,0,.0013.02343l.00261.04818a.11933.11933,0,0,1,.0013.02214l.0039.05208.00131.01693.0039.05729v.013l.00391.05338.0013.01823c0,.01953.0013.03516.00261.05469l.0013.01563.00781.14062.0013.01693.00391.05469v.01562l.0039.05469v.01692l.00391.05339.0013.026.00261.043.0013.02865c.0013.01171.0013.02994.0026.04036l.0013.03125.00261.03906.0013.03125.00261.03776.0013.03516.0026.03516a.27264.27264,0,0,0,.0013.03255l.00131.04036.0026.02865.0013.04557.0013.02214c.00131.01432.00261.03385.00261.04817l.0013.02474.0026.04427a.17357.17357,0,0,0,.00131.026l.0013.04427a.18364.18364,0,0,1,.0013.026c.0013.01432.00261.03255.00261.04687l.0013.02344.0013.04167.0026.03125.00131.04557.0013.02214c.0026.04557.0039.09765.00651.14323v.01041c.0013.01693.0026.04037.0026.0586a.19255.19255,0,0,1,.0013.02734l.00261.043a.21121.21121,0,0,0,.0013.02864c0,.01433,0,.02735.0013.04167l.0013.03.00131.04036a2991.47236,2991.47236,0,0,0,.0026.06771.32978.32978,0,0,1,.0013.03646l.00261.03776v.02865l.0026.04036a.2211.2211,0,0,0,.0013.03c0,.01432,0,.02995.00131.043a.19255.19255,0,0,0,.0013.02734c0,.01172,0,.03.0013.04167a.25137.25137,0,0,0,.0013.03125.36649.36649,0,0,0,.0013.03776.29237.29237,0,0,0,.00131.03385,21372761154.52362,21372761154.52362,0,0,0,.0026.07032v.03645a.31787.31787,0,0,1,.0013.03516.2836.2836,0,0,1,.0013.03385.31546.31546,0,0,1,.00131.03516.36649.36649,0,0,1,.0013.03776l.0013.03255.0013.03907a.24114.24114,0,0,0,.0013.03125c0,.01692,0,.02864.00131.04557v.02474c.0013.01432.0013.02995.0013.04427.0013.02344.0026.04557.0026.07031a.15664.15664,0,0,0,.00131.02474v.03125c.0013.01172.0013.02995.0013.04167l.0013.02864c0,.01433,0,.026.0013.04037a.34175.34175,0,0,0,.0013.03646V339l.00131.03255.0013.04167v.02083c0,.01693.0013.03386.0013.05078a.14171.14171,0,0,0,.0013.02344v.04688a.15777.15777,0,0,1,.0013.02474c0,.01432,0,.02994.00131.04427v.02994l.0013.04167v.02734c.0013.01433.0013.02865.0013.043l.0013.02865v.043a.21121.21121,0,0,1,.0013.02864v.04037a.24931.24931,0,0,1,.00131.03125c0,.01432,0,.03125.0013.04557v.02214c0,.01692,0,.03125.0013.04817v.02474c0,.01433,0,.03256.0013.04688v.02344c0,.01432,0,.02994.0013.04427v.02864c0,.01693,0,.03646.00131.05339v.01562c0,.04558.0013.09636.0013.14323a.15783.15783,0,0,1,.0013.02474v.07162c.0013.01692.0013.02994.0013.04687v.01693c0,.01693,0,.03646.0013.05338v.10026a.38931.38931,0,0,1,.00131.03907v.07422a.19262.19262,0,0,0,.0013.02734v.14583a.31787.31787,0,0,1,.0013.03516v.17708l.0013.03906v.38672A85.33339,85.33339,0,0,1,256,426.66667h-.2513c-.03386,0-.07031-.00131-.10547-.00131h-.12761c-.03776,0-.069,0-.10677-.0013h-.12109a.14985.14985,0,0,1-.02344-.0013h-.12109c-.03385-.0013-.06771-.0013-.10287-.0013h-.00781c-.03776-.0013-.069-.0013-.10677-.0013h-.01693c-.03385-.00131-.0677-.00131-.10286-.00131l-.02344-.0013c-.03385,0-.06771,0-.10156-.0013h-.01693c-.03515,0-.069-.0013-.10286-.0013h-.01172c-.03646-.0013-.06771-.0013-.10417-.00261h-.01692c-.03516-.0013-.07032-.0013-.10547-.0026h-.01953c-.03386,0-.069-.0013-.10417-.0013l-.01693-.0013c-.03385,0-.0664-.00131-.10156-.00131l-.01172-.0013c-.03776,0-.06641-.0013-.10417-.0013l-.01692-.0013c-.03516,0-.07032-.00131-.10417-.00261h-.01953c-.03516-.0013-.07031-.0013-.10547-.0026h-.01563l-.10156-.00391h-.01172c-.03515-.0013-.07031-.0013-.10416-.0026h-.01953l-.10026-.00391h-.02474l-.10026-.0039h-.02214l-.09375-.00391h-.01823l-.09635-.00391h-.02474l-.09766-.0039a.19255.19255,0,0,1-.02734-.0013c-.03386-.00131-.0638-.00131-.09766-.00261l-.02213-.0013-.09636-.00391h-.01432l-.099-.0039a.165.165,0,0,0-.02474-.00131l-.09635-.0039-.02865-.0013-.09635-.00391-.02474-.0013-.09115-.00391-.01823-.0013-.09765-.00391-.02474-.0013-.09506-.00391a.23074.23074,0,0,0-.02994-.0013c-.03386-.0026-.0625-.0039-.09636-.00521a.11928.11928,0,0,1-.02213-.0013l-.09375-.0039-.01693-.00131c-.03386-.0013-.0651-.0026-.099-.0052a.13319.13319,0,0,1-.02344-.00131c-.03125-.0013-.0664-.0026-.09765-.0052a.19124.19124,0,0,1-.02735-.00131c-.03385-.0013-.0638-.0026-.09765-.00521l-.02214-.0013-.08984-.0039a.1407.1407,0,0,0-.02344-.00131c-.03125-.0026-.0625-.0039-.09375-.0052a.15664.15664,0,0,0-.02474-.00131c-.03125-.0026-.0651-.0039-.09635-.00651l-.02865-.0013c-.03516-.0026-.0612-.00391-.09505-.00521a.17483.17483,0,0,0-.026-.0013c-.02865-.0026-.0586-.00391-.08724-.00651a.15783.15783,0,0,1-.02474-.0013c-.03125-.0013-.0612-.00391-.09245-.00521l-.026-.0013c-.03125-.00261-.06641-.00391-.09766-.00651l-.026-.0013c-.03385-.00261-.0625-.00391-.09635-.00651l-.026-.00131c-.02734-.0026-.056-.0039-.08463-.00651l-.026-.0013c-.02865-.0013-.0625-.00391-.08985-.00651l-.03125-.0013c-.02994-.00261-.06119-.00391-.09244-.00651L250,426.45833c-.03125-.0013-.0638-.0039-.095-.00651l-.02865-.0013c-.02474-.0026-.05469-.00391-.07942-.00651l-.03256-.0013c-.02864-.00261-.05989-.00521-.08854-.00651l-.02734-.00261c-.03125-.0026-.0612-.0039-.09245-.00651l-.03385-.0026-.09245-.00781-.02474-.00131c-.02474-.0013-.056-.0039-.082-.00651a.32117.32117,0,0,1-.03386-.0026c-.02734-.0013-.056-.00391-.08463-.00651l-.03125-.0026c-.02865-.00261-.0599-.00391-.08854-.00652l-.03776-.0039c-.02865-.0013-.0599-.00391-.08855-.00651l-.02994-.00261c-.02474-.0026-.04948-.0039-.07553-.00651-.01432-.0013-.02864-.0026-.043-.0026-.02474-.0026-.05079-.00521-.07552-.00651l-.03516-.00391c-.03125-.0026-.0586-.0039-.08984-.00651l-.03516-.0039-.08724-.00782a.2755.2755,0,0,1-.03386-.0026l-.07161-.00651-.04167-.00391c-.02474-.0013-.05208-.0039-.07812-.00651a.31983.31983,0,0,0-.03516-.0026c-.02864-.00261-.05859-.00651-.08724-.00781l-.03776-.00391-.08594-.00781-.03385-.00391c-.02344-.0013-.04818-.00391-.07031-.00651l-.04557-.00391c-.026-.0026-.04948-.0052-.07422-.00651l-.03907-.0039-.082-.00782-.043-.0052-.08333-.00782-.03776-.0039c-.02213-.0013-.04036-.00391-.0638-.00651l-.04948-.00391-.07292-.00781-.03646-.00391c-.02864-.0026-.05729-.00521-.08593-.00911l-.03907-.00391-.07812-.00781-.04427-.00391c-.01953-.0026-.043-.00521-.0625-.00651-.01823-.0026-.03646-.0039-.05469-.00651-.02213-.0026-.04427-.0039-.06641-.00651l-.043-.00521-.07943-.00781c-.01563-.0026-.02995-.00391-.04557-.00521-.02474-.0026-.043-.00521-.069-.00781-.01823-.0013-.03516-.00391-.05339-.00521-.01693-.0026-.03646-.0039-.05339-.00651l-.0664-.00781c-.01953-.0013-.03516-.00391-.05469-.00521l-.04948-.00651-.07552-.00781c-.01562-.00261-.03-.00391-.04687-.00521l-.06511-.00781c-.01953-.00261-.03776-.00391-.05729-.00651-.01693-.00261-.03646-.00391-.05339-.00651l-.0651-.00782c-.01953-.0013-.03906-.0039-.05859-.00651-.01563-.0013-.03-.0039-.04558-.00521-.026-.0026-.05338-.00651-.07812-.00911-.01563-.0026-.02995-.00391-.04557-.00521-.02474-.0039-.04558-.00651-.07162-.00911-.01693-.0013-.03255-.00391-.04948-.00651-.01692-.00131-.03646-.00391-.05208-.00521-.02474-.00391-.04688-.00651-.07031-.00912l-.05339-.00651c-.01562-.0013-.03125-.0039-.04687-.00521-.02474-.0039-.05079-.00651-.07553-.01041-.01562-.0013-.03385-.00391-.05078-.00651-.01562-.0013-.03906-.00391-.056-.00651l-.0638-.00781c-.01693-.00261-.03515-.00521-.05208-.00652-.02344-.0039-.04818-.00651-.07162-.00911l-.04817-.00651c-.01693-.0026-.03516-.00391-.05209-.00651l-.07291-.00912-.05078-.00781-.04688-.00521c-.026-.0039-.05208-.00781-.07812-.01041l-.04037-.00521-.07943-.01172-.04427-.00521-.05338-.00781-.07031-.00912c-.01693-.0026-.03646-.0052-.05339-.00651-.01432-.0026-.03255-.0052-.04687-.00651-.02474-.0039-.05079-.00781-.07683-.01041l-.04166-.00651c-.02735-.00391-.05209-.00782-.07943-.01042-.01693-.0026-.02865-.00521-.04557-.00651l-.05209-.00781c-.02213-.00261-.04687-.00651-.069-.00912-.01823-.0026-.03776-.00651-.056-.00911l-.043-.00521-.08073-.01172-.03645-.00521c-.02865-.0039-.0573-.00911-.08724-.013l-.03776-.00521-.05339-.00781c-.02214-.00391-.04687-.00651-.069-.01042l-.056-.00781c-.013-.0026-.02995-.00521-.04427-.00651l-.07682-.01172c-.013-.0026-.02865-.0039-.04167-.00651l-.08333-.01172-.04037-.00651-.05338-.00781c-.02214-.00391-.04948-.00781-.07162-.01172l-.05208-.00781c-.013-.0013-.02734-.00391-.04167-.00651-.02734-.00391-.05729-.00781-.08463-.013a.22352.22352,0,0,1-.03125-.00521c-.03125-.00391-.06381-.00911-.09506-.01432l-.02994-.00391c-.0599-.01042-.1211-.01953-.181-.02865a.35163.35163,0,0,0-.03907-.00651c-.02864-.0052-.056-.00911-.08333-.01432l-.03776-.00521c-.02864-.00521-.05729-.00911-.08594-.01432l-.03776-.00521c-.05989-.01041-.12109-.02083-.181-.03a.24314.24314,0,0,0-.03255-.0052l-.09114-.01563-.02865-.00521c-.03385-.00521-.06771-.01041-.10156-.01692a.13268.13268,0,0,1-.02214-.00391c-.02083-.00261-.03906-.00651-.05989-.00912l-.02735-.0052-.09635-.01563-.03255-.00651c-.02995-.00521-.0599-.01042-.08985-.01432a.27951.27951,0,0,0-.03515-.00651l-.09245-.01563a.22294.22294,0,0,0-.02865-.00521c-.01953-.0039-.03906-.00781-.05859-.01041a.31053.31053,0,0,0-.03125-.00521c-.03125-.00651-.0625-.01172-.09375-.01693l-.02735-.00521c-.03255-.0052-.0638-.01041-.09635-.01692l-.02734-.00521c-.03256-.00521-.06381-.01042-.09636-.01693a.21939.21939,0,0,1-.02864-.00521c-.0599-.01041-.1211-.02083-.1823-.03255-.01041-.0013-.01953-.00391-.03124-.00521-.02995-.00651-.0599-.01172-.09115-.01692l-.03125-.00652-.09115-.01562a.31.31,0,0,0-.03385-.00651c-.01823-.00391-.03776-.00781-.056-.01042l-.02474-.00521c-.03255-.0052-.06771-.01171-.10026-.01822l-.026-.00521c-.03255-.00651-.06511-.01172-.09636-.01823a.187.187,0,0,1-.02864-.00521c-.03125-.00521-.0625-.01172-.09245-.01693a.31094.31094,0,0,0-.03385-.00651c-.01693-.0039-.03646-.00781-.05469-.01041-.02214-.00521-.04557-.00912-.06771-.013l-.05469-.01171a.36028.36028,0,0,1-.03646-.00651c-.02864-.00521-.05729-.01042-.08593-.01693a.26052.26052,0,0,1-.03386-.00651c-.03-.00521-.0612-.01172-.09245-.01823-.01041-.0013-.01953-.00391-.03125-.00521l-.05468-.01172-.069-.013c-.01693-.00391-.03516-.00651-.05209-.01042l-.04036-.00781c-.02735-.00651-.056-.01172-.08333-.01693a.31306.31306,0,0,0-.03386-.00651c-.02864-.00651-.056-.01171-.08463-.01692l-.03907-.00782-.05338-.01171-.069-.013c-.01693-.0039-.03386-.00781-.05078-.01041-.01563-.00391-.03125-.00651-.04688-.01042-.026-.00521-.04948-.01042-.07422-.01432-.013-.00391-.02734-.00651-.04036-.00912l-.07813-.01562c-.01432-.00391-.03125-.00651-.04427-.00912l-.05078-.01171c-.01953-.00391-.043-.00782-.0612-.01172-.02083-.00521-.04166-.00912-.0625-.013l-.03776-.00912c-.02734-.00521-.05469-.01042-.082-.01693a.36262.36262,0,0,1-.03646-.00781c-.02864-.00521-.05729-.01172-.08724-.01823l-.03515-.00781-.05339-.01042-.056-.013c-.02213-.0039-.04427-.00911-.0664-.01432l-.03646-.00781c-.02735-.00521-.05469-.01172-.082-.01693-.013-.00391-.02474-.00651-.03776-.00911l-.09245-.01954-.026-.00651c-.01953-.0039-.03907-.00781-.0586-.013l-.02213-.0039c-.03256-.00782-.06641-.01433-.099-.02214a.221.221,0,0,0-.03125-.00651c-.02995-.00781-.0612-.01432-.09245-.02083a.20683.20683,0,0,0-.02734-.00651c-.03125-.00651-.0638-.01433-.09636-.02084l-.026-.00651c-.01953-.0039-.03906-.00911-.05859-.013l-.01042-.0026c-.03646-.00781-.07422-.01693-.11068-.02474l-.02864-.00651c-.03-.00781-.0612-.01432-.09115-.02083l-.03255-.00782c-.02734-.00651-.05469-.013-.08073-.01823-.013-.0039-.03-.00651-.043-.01041l-.05208-.01172c-.01432-.00391-.03125-.00781-.04557-.01042-.02474-.00651-.04948-.01172-.07552-.01823l-.03907-.00911c-.026-.00521-.05338-.01172-.08073-.01823l-.03515-.00912-.08334-.01953c-.013-.0026-.02474-.00521-.03776-.00911l-.05338-.01172c-.01823-.00521-.03516-.00912-.05469-.013l-.06641-.01563a.3733.3733,0,0,0-.03645-.00911l-.082-.01953c-.013-.00391-.02474-.00651-.03776-.00912-.026-.00651-.05078-.013-.07552-.01823-.01692-.0039-.02994-.00781-.04557-.01171l-.05078-.01172c-.02344-.00651-.04557-.01172-.07031-.01693l-.04818-.01172c-.01693-.00391-.02865-.00781-.04427-.01172-.026-.00651-.05078-.01172-.07552-.01823-.01433-.0039-.02474-.00651-.03906-.00911-.026-.00651-.05469-.01432-.082-.02084a.37046.37046,0,0,1-.03645-.00911c-.01823-.00391-.03646-.00911-.05339-.013-.02213-.00521-.04167-.01042-.0625-.01563-.01823-.0039-.03646-.00911-.05469-.01432l-.04687-.01172c-.02344-.00521-.04818-.01172-.07031-.01692-.01433-.00391-.03125-.00782-.04428-.01172-.02343-.00521-.04557-.01172-.069-.01693l-.05208-.013-.04557-.01172c-.02474-.00651-.04948-.013-.07292-.01823l-.04557-.01172c-.01823-.00521-.03646-.01041-.056-.01432l-.05729-.01563c-.01693-.0039-.03516-.00911-.05078-.013l-.0612-.01562c-.01953-.00521-.03776-.01042-.05729-.01432-.01563-.00391-.02995-.00782-.04558-.013-.02474-.0052-.04817-.01171-.07291-.01822-.01563-.00391-.03125-.00782-.04688-.013l-.04818-.01171c-.02213-.00651-.04427-.01172-.0664-.01823-.01563-.00391-.03255-.00782-.04948-.013l-.0625-.01563-.05339-.01432c-.01692-.00521-.03125-.00912-.04817-.013-.02474-.00651-.04688-.013-.07032-.01953-.01692-.00391-.03255-.00782-.04817-.013a.442.442,0,0,1-.04427-.01172c-.02474-.00651-.04818-.01172-.07292-.01953-.013-.00261-.03-.00782-.043-.01042-.02083-.00651-.043-.01172-.0638-.01823-.01953-.00521-.03646-.00912-.05469-.01432-.01562-.00521-.03255-.00912-.04818-.013-.02083-.00651-.04036-.01172-.06119-.01693l-.056-.01563c-.01563-.0039-.03256-.00911-.04948-.013-.02214-.00651-.04427-.01172-.06641-.01823-.01562-.0052-.02864-.00781-.04557-.013-.01953-.00521-.04037-.01172-.0612-.01692-.01823-.00521-.03906-.01042-.05859-.01563-.01563-.00521-.03-.00911-.04558-.013l-.0638-.01823c-.01693-.00391-.03646-.00911-.05469-.01432-.01562-.00521-.03125-.00912-.04687-.013l-.06641-.01953c-.01562-.00391-.03125-.00912-.04687-.013l-.05339-.01562-.06771-.01823-.03906-.01172c-.026-.00651-.05078-.01432-.07682-.02083-.013-.00391-.02734-.00781-.04167-.013-.02083-.00521-.03646-.01042-.05729-.01563l-.05208-.01562c-.02084-.00521-.03776-.01042-.0599-.01693l-.04036-.01172-.07422-.02083a.39033.39033,0,0,1-.04167-.013l-.07552-.02084c-.013-.0039-.02734-.00911-.04036-.01171-.01954-.00651-.03646-.01042-.05469-.01693l-.0612-.01693-.04948-.01562-.04427-.01172c-.02344-.00781-.04948-.01563-.07292-.02214-.01432-.0039-.02864-.00781-.043-.013-.02343-.00651-.05208-.01432-.07552-.02213-.01171-.00391-.02474-.00782-.03645-.01042l-.06511-.01953c-.01562-.00521-.03125-.00912-.04687-.01432l-.0612-.01823-.03906-.01172-.07683-.02344-.03776-.01042-.07682-.02343-.03776-.01172-.0651-.01953c-.01433-.00391-.02735-.00912-.04167-.013l-.06511-.01953-.03645-.01172-.07943-.02343a.33435.33435,0,0,0-.03386-.01042l-.08333-.026-.02734-.00912-.07943-.02343-.02474-.00782c-.026-.00911-.05469-.01692-.08073-.026l-.02734-.00781c-.02865-.00911-.056-.01693-.08464-.026l-.02995-.01042c-.02864-.00911-.056-.01693-.08463-.026a.22466.22466,0,0,1-.02734-.00911l-.07683-.02344a.22473.22473,0,0,0-.02734-.00912c-.026-.00781-.05208-.01562-.07813-.02474-.00911-.0026-.01823-.00651-.02864-.00911l-.08333-.026c-.01042-.00391-.02084-.00651-.02995-.01042-.02865-.00911-.056-.01693-.08464-.026a.22473.22473,0,0,0-.02734-.00912c-.026-.00911-.05209-.01692-.07813-.02473a.223.223,0,0,0-.02734-.00912c-.026-.00911-.05078-.01693-.07682-.02474l-.02865-.00911c-.02865-.01042-.05859-.01953-.08724-.02865l-.02474-.00781c-.02864-.00912-.05859-.01953-.08724-.02865l-.026-.00911-.08333-.026-.01433-.00521c-.02864-.00912-.05729-.01953-.08593-.02865l-.026-.00911c-.02864-.00912-.05859-.01823-.08723-.02865-.00782-.0013-.01563-.00521-.02344-.00651l-.08985-.03125-.01953-.00521c-.03125-.01041-.05989-.02083-.09114-.03125l-.00782-.0026-.09244-.03125-.02084-.00651c-.03125-.01042-.0612-.02084-.09114-.03125a.086.086,0,0,1-.01953-.00651l-.09506-.03125-.013-.00391c-.03255-.01172-.0625-.02213-.09635-.03385l-.00391-.0013c-.03-.01042-.0625-.02084-.09245-.03125l-.02213-.00782c-.02865-.00911-.0612-.02083-.08984-.02995l-.02084-.00781-.09245-.03125-.01562-.00521-.09636-.03385-.0026-.0013c-.03-.01042-.0651-.02214-.09635-.03255l-.01693-.00651c-.03125-.01042-.0651-.02214-.09505-.03256l-.013-.00521c-.03125-.01041-.06771-.02343-.099-.03385l-.00781-.00391c-.06771-.02343-.13542-.04687-.20183-.07031l-.013-.00521c-.03385-.01172-.0638-.02213-.09635-.03385l-.013-.00391c-.03-.01172-.06771-.02474-.09766-.03515l-.01042-.00391c-.0664-.02344-.13541-.04818-.20182-.07161l-.01042-.00391c-.03385-.013-.0638-.02344-.09765-.03516l-.01172-.0052c-.03385-.01172-.06771-.02344-.10026-.03646h-.00261c-.069-.02474-.14192-.05209-.21093-.07683l-.0013-.0013q-.30274-.11133-.60678-.21094c-.16276-.069-.32682-.13411-.49218-.19921-.28907-.11068-.57683-.22136-.86328-.33464l-.00782-.00391c-.07422-.02864-.14843-.05859-.22265-.08724A21.33313,21.33313,0,1,0,208.72135,460.306l1.64454.64062c.30468.11849.612.23047.91927.33464.24218.09766.48567.19271.73177.28255q4.541,1.66015,9.17578,2.97a47.48276,47.48276,0,0,1,30.0026,26.13282H448A42.66712,42.66712,0,0,0,490.66667,448V427.84375A85.333,85.333,0,0,0,427.78646,345.51693Z" style="fill:#005eee"/><path d="M352,85.33333H352a32,32,0,0,1,32,32v.00007a135.554,135.554,0,0,1-14.31082,60.6216l0,0A25.40762,25.40762,0,0,1,346.9639,192h-1.55629A25.40762,25.40762,0,0,1,320,166.59239V117.3333A32,32,0,0,1,352,85.33333Z" style="fill:#163969"/><circle cx="330.66667" cy="117.33333" r="32" style="fill:#002755"/><rect x="149.33333" y="21.33333" width="192" height="149.33333" rx="74.66659" ry="74.66659" style="fill:#163969"/><ellipse cx="213.33333" cy="85.33333" rx="48.23379" ry="36.24869" transform="translate(2.14411 175.843) rotate(-45)" style="fill:#5e7599"/><rect x="106.66667" y="320" width="42.66667" height="170.66667" rx="21.33331" ry="21.33331" style="fill:#33527d"/><rect x="106.66667" y="448" width="42.66667" height="21.33333" rx="10.66666" ry="10.66666" style="fill:#002755"/><rect x="384" y="320" width="42.66667" height="170.66667" rx="21.33331" ry="21.33331" style="fill:#33527d"/><rect x="85.33333" y="405.33333" width="85.33333" height="42.66667" rx="21.33331" ry="21.33331" style="fill:#163969"/><rect x="362.66667" y="405.33333" width="85.33333" height="42.66667" rx="21.33331" ry="21.33331" style="fill:#163969"/><rect x="384" y="448" width="42.66667" height="21.33333" rx="10.66666" ry="10.66666" style="fill:#002755"/><rect x="106.66667" y="405.33333" width="42.66667" height="21.33333" rx="10.66666" ry="10.66666" style="fill:#7d8fac"/><rect x="384" y="405.33333" width="42.66667" height="21.33333" rx="10.66666" ry="10.66666" style="fill:#7d8fac"/></g></svg>